<svg width="40" height="40" fill="none" xmlns="http://www.w3.org/2000/svg"><rect x=".5" y=".5" width="39" height="39" rx="19.5" fill="#fff"/><path d="M9.5 14.25a2.5 2.5 0 012.5-2.5h15a2.5 2.5 0 012.5 2.5v3.933a5.635 5.635 0 00-1.25-.848V14.25A1.25 1.25 0 0027 13H12a1.25 1.25 0 00-1.25 1.25v10A1.25 1.25 0 0012 25.5h9.073c.095.141.196.279.302.411v.839H12a2.5 2.5 0 01-2.5-2.5v-10z" fill="#101112"/><path d="M30.125 22.375a4.36 4.36 0 01-1.25 3.063V30.5a.625.625 0 01-1 .5l-1.75-1.312a.625.625 0 00-.75 0L23.625 31a.625.625 0 01-1-.5v-5.062a4.375 4.375 0 117.5-3.063zM25.75 26.75a4.34 4.34 0 01-1.875-.42v2.608l1.554-.933a.625.625 0 01.642 0l1.554.933v-2.609a4.357 4.357 0 01-1.875.421zm0-1.25a3.125 3.125 0 100-6.25 3.125 3.125 0 000 6.25zm-12.5-9.375a.624.624 0 01.625-.625h11.25a.624.624 0 110 1.25h-11.25a.624.624 0 01-.625-.625zm.625 5.625a.624.624 0 100 1.25h5a.624.624 0 100-1.25h-5z" fill="#101112"/><rect x=".5" y=".5" width="39" height="39" rx="19.5" stroke="silver"/></svg>