<svg width="50" height="36" fill="none" xmlns="http://www.w3.org/2000/svg"><g clip-path="url(#clip0_827_24519)"><path d="M2.195 27.05C.095 28.3-.284 30.959.171 32.572.613 34.135 2.171 36 4.973 36h39.783c3.138 0 4.569-1.813 5.01-3.377.456-1.613.456-4.11-1.973-5.62L26.728 14.475v-2.133c0-2.42-2.62-3.47-2.62-3.47-1.695-.832-1.543-2.627-1.543-2.627 0-2.107 1.873-2.784 2.707-2.784 1.402 0 2.777.784 2.922 2.576.228 2.81 3.387 2.096 3.387-.161C31.58 3.742 29.65 0 25.247 0c-4.76 0-6.126 4.69-6.126 6.173 0 1.118.175 2.151.86 3.33 1.164 2.003 3.493 2.318 3.493 3.644v1.327L2.195 27.051z" fill="#101112"/><path d="M24.968 17.69l20.638 12.155c1.28.914.587 2.634-.8 2.637H5.036c-1.295.05-2.095-1.776-.815-2.583L24.968 17.69z" fill="#EFEFEF"/></g><defs><clipPath id="clip0_827_24519"><path fill="#fff" d="M0 0h50v36H0z"/></clipPath></defs></svg>