<svg width="14" height="14" fill="none" xmlns="http://www.w3.org/2000/svg"><path d="M0 3.5a1.75 1.75 0 011.75-1.75h10.5A1.75 1.75 0 0114 3.5v7a1.75 1.75 0 01-1.75 1.75H1.75A1.75 1.75 0 010 10.5v-7zm1.75-.875a.875.875 0 00-.875.875v.875h12.25V3.5a.875.875 0 00-.875-.875H1.75zm11.375 3.5H.875V10.5a.875.875 0 00.875.875h10.5a.875.875 0 00.875-.875V6.125z" fill="#fff"/><path d="M1.75 8.75a.875.875 0 01.875-.875H3.5a.875.875 0 01.875.875v.875a.875.875 0 01-.875.875h-.875a.875.875 0 01-.875-.875V8.75z" fill="#fff"/></svg>