<svg width="132" height="71" fill="none" xmlns="http://www.w3.org/2000/svg"><path d="M114.756 48.164L97.829 37.316l16.806-12.608a1.9 1.9 0 00.39-2.634 1.84 1.84 0 00-2.598-.394L88.595 39.557l-.01-.008-.01.008L64.744 21.68a1.84 1.84 0 00-2.597.394 1.901 1.901 0 00.39 2.634l16.806 12.608-16.926 10.848a1.9 1.9 0 00-.577 2.6 1.85 1.85 0 001.571.877c.34 0 .683-.094.991-.292l18.145-11.63 4.936 3.703a1.837 1.837 0 002.209 0l4.934-3.703 18.146 11.63c.308.198.651.292.991.292.616 0 1.219-.311 1.571-.878a1.902 1.902 0 00-.577-2.6z" fill="silver"/><path d="M113.04 10.482H64.126c-7.181 0-13.024 6.458-13.024 14.394v21.248c0 7.938 5.843 14.396 13.024 14.396h48.914c7.184 0 13.026-6.458 13.026-14.396V24.876c0-7.936-5.843-14.394-13.026-14.394zm8.763 35.642c0 5.348-3.923 9.683-8.763 9.683H64.126c-4.839 0-8.76-4.335-8.76-9.683V24.876c0-5.346 3.922-9.68 8.76-9.68h48.914c4.841 0 8.763 4.334 8.763 9.68v21.248zm-80.082-24.12H8.038c-1.162 0-2.104.956-2.104 2.135 0 1.18.942 2.136 2.104 2.136h33.683c1.161 0 2.104-.957 2.104-2.136 0-1.179-.943-2.135-2.104-2.135zm.452 10.83H15.756c-.91 0-1.65.955-1.65 2.135 0 1.178.74 2.136 1.65 2.136h26.417c.913 0 1.651-.958 1.651-2.136 0-1.18-.739-2.135-1.65-2.135zm.357 10.824H21.81c-.716 0-1.294.956-1.294 2.135 0 1.18.578 2.136 1.294 2.136h20.72c.714 0 1.294-.956 1.294-2.136 0-1.178-.58-2.135-1.294-2.135z" fill="silver"/></svg>