<svg width="100" height="110" fill="none" xmlns="http://www.w3.org/2000/svg"><path d="M99.402 32.891c0-.032 0-.063-.032-.063 0-.064-.032-.096-.032-.16 0-.032-.031-.095-.031-.127s-.032-.064-.032-.096a1.717 1.717 0 00-.224-.414L78.321 1.61A2.355 2.355 0 0076.344.557H23.689c-.798 0-1.531.383-1.978 1.052L.981 32.03c-.096.128-.16.287-.223.414 0 .032-.032.064-.032.096-.032.032-.032.096-.032.127 0 .064-.032.096-.032.16 0 .031 0 .063-.032.063-.032.16-.064.319-.064.478v73.683a2.408 2.408 0 002.392 2.39h94.116a2.408 2.408 0 002.392-2.39V33.369c-.032-.16-.032-.318-.064-.478zm-6.889-1.911H61.61L58.707 5.336h16.33L92.512 30.98zm-49.625 4.778h14.193V53.28l-5.71-4.014a2.425 2.425 0 00-1.37-.446c-.48 0-.957.16-1.372.446L42.92 53.28V35.76h-.032zM53.891 5.336l2.902 25.644H43.175l2.902-25.644h7.814zm-28.927 0h16.33L38.39 30.98H7.487L24.964 5.336zm69.686 99.327H5.35V35.758h32.786v22.109c0 .892.51 1.72 1.276 2.134a2.41 2.41 0 002.488-.16L50 54.14l8.101 5.703c.415.286.893.446 1.371.446a2.73 2.73 0 001.117-.255 2.392 2.392 0 001.275-2.135V35.79H94.65v68.873z" fill="silver"/><path d="M32.457 78.7H15.49a2.408 2.408 0 00-2.392 2.39 2.408 2.408 0 002.392 2.39h16.967a2.408 2.408 0 002.392-2.39 2.408 2.408 0 00-2.392-2.39zm-8.484 10.035H15.49a2.408 2.408 0 00-2.392 2.39 2.408 2.408 0 002.392 2.388h8.483a2.408 2.408 0 002.392-2.389 2.408 2.408 0 00-2.392-2.389z" fill="silver"/></svg>