<svg width="100" height="100" fill="none" xmlns="http://www.w3.org/2000/svg"><path d="M18 26H2v62c0 5.514 4.486 10 10 10h76c5.514 0 10-4.486 10-10V2H18v24zM6 88V30h12v58c0 3.308-2.692 6-6 6s-6-2.692-6-6zM22 6h72v82c0 3.308-2.692 6-6 6H19.996c.06-.078.102-.168.158-.248.114-.162.214-.332.318-.502a9.773 9.773 0 00.826-1.64c.15-.388.27-.786.372-1.196.046-.188.104-.368.14-.56.116-.602.19-1.218.19-1.854V6z" fill="silver"/><path d="M86 16H30v4h56v-4zm-8 10H38v4h40v-4zm8 16H62v4h24v-4zm0 10H62v4h24v-4zM54 42H30v24h24V42zm-4 20H34V46h16v16zm36 0H62v4h24v-4zM54 72H30v4h24v-4zm32 0H62v4h24v-4zM54 82H30v4h24v-4zm32 0H62v4h24v-4z" fill="silver"/></svg>