<svg width="30" height="30" fill="none" xmlns="http://www.w3.org/2000/svg"><path d="M15 27.063c-.387 0-.762-.05-1.075-.163C9.15 25.263 1.562 19.45 1.562 10.863c0-4.375 3.538-7.925 7.888-7.925 2.113 0 4.088.825 5.55 2.3a7.768 7.768 0 015.55-2.3c4.35 0 7.887 3.562 7.887 7.925 0 8.6-7.587 14.4-12.362 16.037a3.236 3.236 0 01-1.075.163zM9.45 4.813c-3.312 0-6.012 2.712-6.012 6.05 0 8.537 8.212 13.287 11.1 14.274.224.075.712.075.937 0 2.875-.987 11.1-5.724 11.1-14.274 0-3.338-2.7-6.05-6.012-6.05a5.94 5.94 0 00-4.8 2.425c-.35.474-1.15.474-1.5 0C13.1 5.688 11.35 4.811 9.45 4.811z" fill="#101112"/></svg>