<svg width="24" height="24" fill="none" xmlns="http://www.w3.org/2000/svg"><path fill-rule="evenodd" clip-rule="evenodd" d="M3.407 8.095C5.195 6.307 8.001 4.5 12 4.5c4 0 6.805 1.807 8.593 3.595a14.188 14.188 0 011.956 2.45 11.909 11.909 0 01.591 1.054l.032.067.009.02.003.006v.002h.001L22.5 12l.685.305v.001l-.001.002-.003.007-.01.02a7.643 7.643 0 01-.151.304c-.104.2-.26.48-.471.815a14.185 14.185 0 01-1.956 2.451C18.805 17.693 15.999 19.5 12 19.5c-4 0-6.805-1.807-8.593-3.595a14.186 14.186 0 01-1.956-2.45A11.974 11.974 0 01.86 12.4a5.31 5.31 0 01-.032-.067l-.009-.02-.003-.006v-.002H.814L1.5 12l-.685-.305v-.001l.001-.002.003-.007.01-.02a5.31 5.31 0 01.15-.303c.105-.2.261-.481.472-.816a14.19 14.19 0 011.956-2.451zM1.5 12l-.685-.305a.75.75 0 000 .61L1.5 12zm.839 0c.088.165.215.39.382.655a12.64 12.64 0 001.747 2.19C6.055 16.432 8.499 18 12 18c3.5 0 5.945-1.568 7.532-3.155a12.695 12.695 0 001.747-2.19c.168-.265.294-.49.382-.655-.088-.165-.215-.39-.382-.655a12.693 12.693 0 00-1.747-2.19C17.945 7.568 15.501 6 12 6 8.5 6 6.055 7.568 4.468 9.155a12.69 12.69 0 00-1.747 2.19c-.167.265-.294.49-.382.655zM22.5 12l.685.305a.75.75 0 000-.61L22.5 12z" fill="#101112"/><path fill-rule="evenodd" clip-rule="evenodd" d="M12 9a3 3 0 100 6 3 3 0 000-6zm-4.5 3a4.5 4.5 0 119 0 4.5 4.5 0 01-9 0z" fill="#101112"/><path stroke="#101112" stroke-width="2" stroke-linecap="round" d="M3.414 3L20 19.586"/></svg>