<svg width="16" height="17" fill="none" xmlns="http://www.w3.org/2000/svg"><g clip-path="url(#clip0_611_26879)"><path d="M7.429 1.5C10.506 1.5 13 4.007 13 7.1c0 1.035-.201 2.103-.78 2.873l-4.79 6.384-4.793-6.384c-.525-.7-.78-1.936-.78-2.873 0-3.093 2.495-5.6 5.572-5.6zm0 3.244A2.35 2.35 0 005.084 7.1a2.35 2.35 0 002.345 2.357A2.35 2.35 0 009.773 7.1 2.35 2.35 0 007.43 4.744z" fill="#101112"/></g><defs><clipPath id="clip0_611_26879"><path fill="#fff" transform="matrix(-1 0 0 1 16 .5)" d="M0 0h16v16H0z"/></clipPath></defs></svg>