<svg width="50" height="50" fill="none" xmlns="http://www.w3.org/2000/svg"><path d="M24.432 0C14.076 0 5.682 8.247 5.682 18.42c0 3.401.677 6.915 2.623 9.447l16.127 20.997 16.127-20.996c1.766-2.3 2.623-6.367 2.623-9.449C43.182 8.247 34.787 0 24.432 0z" fill="#E33"/><path d="M20.114 14.431v-1.619c0-.371.07-.72.21-1.046.141-.331.335-.618.583-.86a2.62 2.62 0 01.86-.582c.326-.14.675-.21 1.046-.21.303 0 .593.047.87.143.276.096.528.23.758.405a2.681 2.681 0 014.099 1.104c.14.326.21.675.21 1.046v1.62h1.08a1.08 1.08 0 011.08 1.079v2.797a2.708 2.708 0 00-1.746-.638h-2.573v-3.239h1.08v-1.619a1.59 1.59 0 00-.126-.632 1.6 1.6 0 00-1.493-.987c-.332 0-.63.093-.894.278.233.409.355.871.354 1.341v4.914a2.711 2.711 0 00-2.16 2.656v3.108c0 .71.28 1.392.776 1.898l1.956 1.998h-4.89c-.857 0-1.679-.34-2.286-.945a3.303 3.303 0 01-.7-1.028c-.17-.4-.256-.83-.253-1.266v-8.636a1.08 1.08 0 011.08-1.08h1.08zm4.318 0v-1.619a1.59 1.59 0 00-.126-.632 1.6 1.6 0 00-1.493-.987 1.6 1.6 0 00-.633.126 1.6 1.6 0 00-.986 1.493v1.62h3.238zm.467 10.202a1.633 1.633 0 01-.467-1.144v-3.107a1.631 1.631 0 011.63-1.632h3.102c.435 0 .852.174 1.157.482l3.354 3.39a1.633 1.633 0 01-.026 2.325l-3.182 3.063a1.628 1.628 0 01-2.293-.034L24.9 24.633v.001zm1.692-2.915a.81.81 0 101.619 0 .81.81 0 00-1.619 0z" fill="#fff"/></svg>