<svg width="16" height="16" fill="none" xmlns="http://www.w3.org/2000/svg"><path d="M7.667 14.5C3.901 14.5.834 11.434.834 7.667.834 3.9 3.901.833 7.667.833c3.767 0 6.834 3.067 6.834 6.834 0 3.767-3.067 6.833-6.834 6.833zm0-12.666a5.84 5.84 0 00-5.833 5.833A5.84 5.84 0 007.667 13.5a5.84 5.84 0 005.834-5.833 5.84 5.84 0 00-5.834-5.833z" fill="#101112"/><path d="M14.666 15.166a.494.494 0 01-.353-.146l-2.647-2.687.707-.707 2.646 2.687a.503.503 0 010 .707c-.1.1-.226.146-.353.146z" fill="#101112"/></svg>