<svg width="35" height="35" fill="none" xmlns="http://www.w3.org/2000/svg"><path d="M23.916 28.583a2.917 2.917 0 110-5.833 2.917 2.917 0 010 5.833zm4.969-5.977a5.88 5.88 0 00-.655-.868m-1.069-.919a5.806 5.806 0 00-3.244-.985c-.545 0-1.071.075-1.571.214" stroke="#101112" stroke-width="1.167" stroke-miterlimit="10"/><path d="M23.333 25.084H24.5v1.167h-1.167v-1.167z" fill="#101112"/><path d="M21.058 25.083h-2.413m12.271 3.501H17.573m14.51 0h1.167M3.5 6.417h16.222c1.178 0 2.294.528 3.04 1.44l4.071 4.976 5.507 3.213a3.008 3.008 0 011.493 2.598v4.665c0 .98-.794 1.774-1.774 1.774h-5.284M2.333 6.417H1.166m0 3.5h1.167m1.167 0h8.75M1.166 13.416h1.167m1.167 0h4.666" stroke="#101112" stroke-width="1.167" stroke-miterlimit="10"/><path d="M29.166 14.194V17.5c0 .967.784 1.75 1.75 1.75h2.917m-17.5-7V9.335c0-.323.26-.584.583-.584h2.806c.478 0 .93.215 1.233.585l3.489 4.264a.246.246 0 01-.19.402h-7.921m0-2.336v4.667M7 28.582h7c.643 0 1.166-.522 1.166-1.166l-.875-4.667c0-.644-.523-1.166-1.167-1.166H8.02c-.644 0-1.167.522-1.167 1.166l-1.02 4.667c0 .644.522 1.166 1.166 1.166zm5.249-6.999v-1.75a.583.583 0 00-.583-.583H9.332a.583.583 0 00-.583.583v1.75m6.281-3.879a8.04 8.04 0 00-.86-.5m-1.517-.584a8.167 8.167 0 103.825 2.316" stroke="#101112" stroke-width="1.167" stroke-miterlimit="10"/></svg>