<svg width="24" height="24" fill="none" xmlns="http://www.w3.org/2000/svg"><path d="M22.413 11.687C20.166 7.533 16.227 5.02 11.867 5.02c-4.36 0-8.307 2.513-10.534 6.667L1.146 12l.174.32c2.246 4.153 6.186 6.667 10.546 6.667 4.36 0 8.307-2.48 10.547-6.667l.174-.32-.174-.313zM11.867 17.62c-3.754 0-7.2-2.093-9.2-5.62 2-3.527 5.446-5.62 9.2-5.62 3.753 0 7.16 2.1 9.193 5.62-2.034 3.527-5.447 5.62-9.193 5.62z" fill="#000"/><path d="M12.06 7.447a4.573 4.573 0 10.067 9.146 4.573 4.573 0 00-.067-9.146zm0 7.813a3.24 3.24 0 113.028-2.007 3.247 3.247 0 01-3.027 2.007z" fill="#000"/></svg>