<svg width="16" height="17" fill="none" xmlns="http://www.w3.org/2000/svg"><g clip-path="url(#clip0_611_26872)"><path d="M13.996 3.988C11.733.5 7.113-.537 3.53 1.631.042 3.8-1.09 8.514 1.173 12.003l.189.283-.755 2.828 2.829-.754.283.189c1.226.66 2.546 1.037 3.866 1.037a7.744 7.744 0 004.054-1.132c3.489-2.263 4.526-6.883 2.357-10.466zm-1.98 7.26c-.377.566-.848.943-1.508 1.038-.378 0-.85.188-2.735-.566-1.603-.754-2.923-1.98-3.866-3.394-.565-.66-.848-1.509-.942-2.358 0-.754.282-1.414.754-1.885.188-.189.377-.283.566-.283h.471c.189 0 .377 0 .471.377.189.471.66 1.603.66 1.697a.287.287 0 010 .377c.095.189 0 .377-.094.472-.094.094-.188.283-.283.377-.188.094-.283.283-.188.471.377.566.848 1.132 1.32 1.603.565.472 1.131.849 1.791 1.132.189.094.377.094.472-.095.094-.188.565-.66.754-.848.188-.189.283-.189.471-.094l1.509.754c.189.094.377.188.471.283.095.283.095.66-.094.943z" fill="#479458"/></g><defs><clipPath id="clip0_611_26872"><path fill="#fff" transform="translate(0 .5)" d="M0 0h16v16H0z"/></clipPath></defs></svg>