<svg width="40" height="40" fill="none" xmlns="http://www.w3.org/2000/svg"><path fill-rule="evenodd" clip-rule="evenodd" d="M20 0C8.954 0 0 8.954 0 20s8.954 20 20 20 20-8.954 20-20S31.046 0 20 0zm-3.124 20.001A3.13 3.13 0 0120 16.877 3.13 3.13 0 0123.125 20 3.13 3.13 0 0120 23.125a3.13 3.13 0 01-3.124-3.124zm12.495-.473v1.002c.002 1.114.004 2.222-.061 3.337-.073 1.5-.413 2.83-1.512 3.928-1.097 1.097-2.428 1.44-3.928 1.512-1.134.064-2.26.063-3.394.061a372.725 372.725 0 00-.945 0c-1.133.002-2.26.003-3.395-.06-1.5-.074-2.83-.413-3.928-1.513-1.097-1.096-1.44-2.428-1.512-3.928-.064-1.134-.063-2.262-.062-3.394a371.78 371.78 0 000-.945c0-1.132-.002-2.26.062-3.395.072-1.5.412-2.829 1.511-3.928 1.097-1.097 2.429-1.44 3.929-1.512 1.133-.064 2.26-.063 3.394-.061a372.725 372.725 0 00.945 0c1.132-.001 2.26-.003 3.395.061 1.5.073 2.829.412 3.928 1.512 1.097 1.097 1.44 2.428 1.512 3.928.064 1.134.062 2.26.061 3.394zM15.194 20A4.8 4.8 0 0020 24.808a4.8 4.8 0 004.808-4.807A4.8 4.8 0 0020 15.194a4.8 4.8 0 00-4.806 4.807zm8.688-5.004a1.121 1.121 0 001.917.794 1.122 1.122 0 10-1.917-.794z" fill="#101112"/></svg>