<svg width="40" height="40" fill="none" xmlns="http://www.w3.org/2000/svg"><path fill-rule="evenodd" clip-rule="evenodd" d="M20 0C8.954 0 0 8.954 0 20s8.954 20 20 20 20-8.954 20-20S31.046 0 20 0zm10.655 15c.794 0 .961.402.794.948-.334 1.503-3.532 5.93-3.532 5.93-.279.436-.39.655 0 1.146.137.189.43.47.764.793.344.33.733.705 1.044 1.065 1.128 1.247 1.977 2.298 2.214 3.022.217.728-.158 1.096-.909 1.096h-2.625c-.703 0-1.058-.387-1.822-1.223a32.01 32.01 0 00-1.253-1.31c-1.558-1.475-2.226-1.667-2.615-1.667-.529 0-.687.147-.687.884v2.313c0 .635-.206 1.003-1.875 1.003-2.782 0-5.838-1.659-8.008-4.719C8.89 19.801 8 16.413 8 15.73c0-.383.15-.73.9-.73h2.626c.67 0 .923.289 1.175 1.003 1.284 3.674 3.45 6.885 4.34 6.885.333 0 .486-.151.486-.984v-3.798c-.06-1.08-.445-1.548-.73-1.894-.175-.214-.313-.382-.313-.62 0-.288.251-.592.668-.592h4.126c.556 0 .75.292.75.948v5.11c0 .546.242.737.409.737.334 0 .612-.191 1.224-.793 1.891-2.076 3.226-5.272 3.226-5.272.167-.383.475-.73 1.143-.73h2.625z" fill="#101112"/></svg>