<svg width="34" height="27" fill="none" xmlns="http://www.w3.org/2000/svg"><g clip-path="url(#clip0_611_26596)"><path d="M6.595 25.21v-1.605c0-.616-.382-1.018-1.037-1.018-.327 0-.682.108-.927.455-.19-.294-.464-.455-.873-.455-.272 0-.545.08-.763.375v-.321h-.573v2.57h.573v-1.42c0-.454.245-.668.627-.668s.573.24.573.669v1.418h.572v-1.418c0-.455.273-.67.628-.67.381 0 .572.242.572.67v1.418h.628zm8.482-2.569h-.928v-.776h-.572v.776h-.518v.509h.518v1.177c0 .589.245.937.9.937.245 0 .518-.08.709-.188l-.164-.481a.91.91 0 01-.49.134c-.274 0-.383-.161-.383-.429v-1.15h.928v-.509zm4.854-.054a.772.772 0 00-.681.375v-.321h-.573v2.57h.573v-1.446c0-.428.19-.669.545-.669.109 0 .245.027.354.053l.164-.535c-.109-.027-.273-.027-.382-.027zm-7.336.268c-.273-.187-.655-.268-1.064-.268-.654 0-1.09.322-1.09.83 0 .428.326.67.9.75l.272.026c.3.054.464.134.464.268 0 .187-.219.321-.6.321-.382 0-.682-.134-.873-.267l-.273.428c.3.214.71.32 1.118.32.764 0 1.2-.347 1.2-.829 0-.455-.354-.696-.9-.776l-.272-.027c-.246-.026-.437-.08-.437-.24 0-.188.191-.295.491-.295.327 0 .655.134.818.214l.246-.455zm15.218-.268a.772.772 0 00-.681.375v-.321h-.573v2.57h.572v-1.446c0-.428.191-.669.546-.669.109 0 .245.027.355.053l.163-.535c-.109-.027-.273-.027-.382-.027zm-7.309 1.339c0 .776.545 1.338 1.391 1.338.382 0 .655-.08.927-.294l-.272-.455c-.219.16-.437.24-.682.24-.464 0-.791-.32-.791-.83 0-.481.327-.802.79-.829.246 0 .464.08.683.24l.272-.454c-.272-.214-.545-.295-.927-.295-.846 0-1.39.563-1.39 1.339zm5.291 0V22.64h-.573v.321c-.19-.24-.463-.375-.818-.375-.736 0-1.309.563-1.309 1.339s.573 1.338 1.31 1.338c.381 0 .654-.134.817-.375v.321h.573v-1.284zm-2.1 0c0-.455.3-.83.791-.83.464 0 .79.348.79.83 0 .455-.326.83-.79.83-.491-.027-.791-.375-.791-.83zm-6.846-1.339c-.763 0-1.309.536-1.309 1.339 0 .803.546 1.338 1.337 1.338.382 0 .763-.107 1.063-.348l-.272-.401c-.218.16-.491.267-.764.267-.355 0-.71-.16-.79-.616h1.935v-.214c.028-.83-.463-1.365-1.2-1.365zm0 .482c.355 0 .6.214.655.616H16.14c.055-.348.3-.616.71-.616zm14.21.857v-2.302h-.573v1.338c-.19-.24-.464-.375-.818-.375-.736 0-1.31.563-1.31 1.339s.573 1.338 1.31 1.338c.382 0 .654-.134.818-.375v.321h.573v-1.284zm-2.1 0c0-.455.3-.83.79-.83.464 0 .792.348.792.83 0 .455-.328.83-.791.83-.491-.027-.791-.375-.791-.83zm-19.146 0V22.64H9.24v.321c-.19-.24-.463-.375-.818-.375-.736 0-1.31.563-1.31 1.339s.574 1.338 1.31 1.338c.382 0 .655-.134.818-.375v.321h.573v-1.284zm-2.127 0c0-.455.3-.83.79-.83.464 0 .791.348.791.83 0 .455-.327.83-.79.83-.491-.027-.791-.375-.791-.83z" fill="#101112"/><path d="M20.995 3.13h-8.59v15.149h8.59V3.129z" fill="#777"/><path d="M12.951 10.704c0-3.078 1.473-5.807 3.736-7.574a9.876 9.876 0 00-6.054-2.06C5.205 1.07.814 5.377.814 10.703c0 5.327 4.391 9.636 9.819 9.636a9.876 9.876 0 006.055-2.061 9.557 9.557 0 01-3.737-7.575zm19.637 0c0 5.327-4.391 9.636-9.819 9.636a9.876 9.876 0 01-6.054-2.061c2.29-1.767 3.736-4.497 3.736-7.575 0-3.078-1.473-5.807-3.736-7.574a9.876 9.876 0 016.055-2.06c5.427 0 9.818 4.335 9.818 9.634z" fill="#777"/></g><defs><clipPath id="clip0_611_26596"><path fill="#fff" d="M0 0h33.401v27H0z"/></clipPath></defs></svg>