<svg width="207" height="31" fill="none" xmlns="http://www.w3.org/2000/svg"><g clip-path="url(#clip0_611_26887)" fill="#000"><path d="M16.939 19.954c1.627 0 3.067-.124 4.324-.372a91.81 91.81 0 003.51-.76c.475-.13.814-.154 1.02-.08.202.075.388.23.558.468l1.729 2.325c.236.302.32.527.254.678-.068.151-.255.281-.559.388a23.982 23.982 0 01-5.773 1.437 48.96 48.96 0 01-5.976.372c-2.78 0-5.181-.263-7.197-.79-2.019-.527-3.68-1.287-4.985-2.277-1.308-.99-2.275-2.2-2.902-3.632C.312 16.279 0 14.67 0 12.884c0-1.765.397-3.37 1.196-4.81.797-1.442 1.909-2.68 3.333-3.713 1.424-1.033 3.144-1.829 5.163-2.389 2.018-.56 4.247-.839 6.688-.839 1.73 0 3.426.091 5.086.275 1.66.184 3.29.555 4.883 1.114.373.13.592.258.66.388.069.13-.016.378-.254.742L25.177 5.88c-.17.302-.347.485-.534.548-.186.064-.517.043-.991-.063a37.722 37.722 0 00-3.407-.63 26.84 26.84 0 00-3.511-.21c-1.391 0-2.62.19-3.689.566-1.068.378-1.966.894-2.695 1.55a6.433 6.433 0 00-1.654 2.325c-.373.894-.559 1.868-.559 2.922s.143 2.013.433 2.873c.288.863.78 1.605 1.476 2.229.695.623 1.602 1.108 2.722 1.453 1.12.339 2.509.511 4.17.511zM38.583 2.68c0 .753-.416 1.383-1.246 1.889-.832.505-1.84.76-3.026.76-1.153 0-2.145-.253-2.977-.76-.832-.506-1.246-1.136-1.246-1.89 0-.387.11-.741.331-1.065a2.9 2.9 0 01.915-.839 5.37 5.37 0 011.348-.566A6.145 6.145 0 0134.309 0c.575 0 1.128.07 1.654.21.525.139.983.329 1.372.565a2.9 2.9 0 01.915.839c.221.323.333.678.333 1.066zm-.662 20.795c0 .236-.069.393-.203.469-.137.075-.441.112-.915.112h-5.187c-.375 0-.644-.037-.814-.112-.17-.076-.255-.23-.255-.47V7.685c0-.236.085-.393.255-.469.17-.075.44-.112.814-.112h5.187c.474 0 .78.039.915.112.134.076.203.233.203.47v15.79zm80.175-12.432h-.304l-2.087 3.004-4.223 5.94c-.372.56-.755.936-1.144 1.13-.392.193-.975.29-1.756.29h-2.798c-.849 0-1.433-.097-1.756-.29-.323-.194-.687-.57-1.093-1.13l-3.154-4.197-3.153-4.359h-.306v11.98c0 .302-.085.484-.255.548-.17.064-.476.097-.915.097h-5.187c-.375 0-.66-.033-.866-.097-.203-.064-.306-.248-.306-.549V3.681c0-.818.246-1.399.739-1.744s1.333-.517 2.521-.517h2.954c.95 0 1.654.112 2.114.339.46.227.892.62 1.3 1.178l5.551 7.878 3.159 4.586h.203l3.463-5.038 5.196-7.362c.408-.581.857-.99 1.349-1.227.493-.236 1.282-.354 2.371-.354h2.496c1.087 0 1.9.145 2.445.436.544.29.815.845.815 1.662v19.89c0 .303-.085.485-.256.549-.172.064-.479.097-.922.097h-5.071c-.377 0-.658-.033-.847-.097-.188-.064-.281-.248-.281-.548V11.044h.004zm35.45 4.455c0 2.842-1.068 5.037-3.204 6.587-2.137 1.55-5.393 2.325-9.767 2.325-4.409 0-7.63-.775-9.664-2.325-2.035-1.55-3.052-3.724-3.052-6.521 0-1.378.296-2.62.89-3.73.592-1.108 1.441-2.038 2.545-2.794 1.101-.754 2.442-1.335 4.017-1.744 1.578-.409 3.366-.614 5.368-.614 4.272 0 7.485.78 9.64 2.34 2.149 1.564 3.227 3.72 3.227 6.476zm-7.682.097c0-.733-.085-1.4-.254-2.002a3.654 3.654 0 00-.866-1.55c-.407-.43-.933-.769-1.577-1.017-.644-.248-1.443-.372-2.391-.372-1.799 0-3.128.436-3.993 1.308-.865.872-1.298 2.05-1.298 3.536 0 1.614.398 2.842 1.197 3.681.797.839 2.111 1.26 3.941 1.26.948 0 1.755-.125 2.416-.373.66-.248 1.202-.59 1.627-1.032.424-.44.728-.952.915-1.535.19-.58.283-1.215.283-1.904zm10.07.13c0-1.205.236-2.358.712-3.455.474-1.098 1.202-2.061 2.188-2.89.983-.83 2.254-1.487 3.815-1.971 1.558-.484 3.407-.727 5.545-.727.882 0 1.737.022 2.569.064.83.043 1.772.14 2.824.291V1.13c0-.258.074-.43.227-.518.151-.085.445-.13.884-.13h5.154c.371 0 .648.037.833.113.184.075.277.254.277.533v20.617c0 .247-.035.49-.101.726-.036.236-.288.452-.762.645-.474.194-1.075.36-1.803.5a36.1 36.1 0 01-2.437.372 46.47 46.47 0 01-2.664.242c-.879.055-1.707.097-2.486.13-.778.033-1.422.049-1.929.049-2.436 0-4.475-.215-6.117-.646-1.641-.43-2.96-1.032-3.96-1.807-.997-.775-1.71-1.69-2.132-2.744-.426-1.054-.637-2.216-.637-3.487zm7.679.064c0 1.722.534 2.927 1.602 3.617 1.069.69 2.553 1.033 4.451 1.033.474 0 1.109-.033 1.906-.097.797-.064 1.466-.161 2.01-.29v-9.008a28.615 28.615 0 00-2.339-.258 29.52 29.52 0 00-1.832-.064c-1.728 0-3.127.4-4.196 1.196-1.068.794-1.602 2.084-1.602 3.87zM207 21.956c0 .279-.06.517-.178.71-.118.194-.414.378-.888.549-.779.236-1.617.43-2.513.581a36.67 36.67 0 01-2.741.355 60.87 60.87 0 01-5.508.258c-2.302 0-4.206-.14-5.711-.42-1.505-.28-2.716-.664-3.629-1.148-.915-.484-1.557-1.054-1.929-1.71a4.215 4.215 0 01-.559-2.116c0-.84.219-1.609.66-2.31.441-.7 1.101-1.308 1.983-1.825.882-.517 1.991-.92 3.333-1.211 1.339-.29 2.925-.436 4.757-.436h5.595v-.517c0-.3-.052-.591-.153-.872-.102-.28-.315-.521-.636-.727-.323-.203-.772-.372-1.347-.5-.578-.13-1.34-.193-2.29-.193-.509 0-1.086.015-1.728.048a58.66 58.66 0 00-1.934.13 48.51 48.51 0 00-1.881.194 29.91 29.91 0 00-1.627.242c-.441.064-.747.064-.915 0-.17-.064-.288-.204-.356-.42l-.814-2.262c-.101-.236-.109-.403-.025-.5.085-.096.263-.178.535-.242a36.693 36.693 0 014.806-.742 55.854 55.854 0 015.009-.226c3.687 0 6.388.5 8.107 1.501 1.718 1.008 2.577 2.488 2.577 4.447v9.362zm-7.376-5.586h-4.018c-.476 0-.983.021-1.525.064a5.92 5.92 0 00-1.501.306c-.457.16-.838.393-1.145.694-.304.302-.457.71-.457 1.226 0 .754.397 1.28 1.196 1.583.797.302 1.874.451 3.23.451.202 0 .474-.005.813-.015.34-.01.704-.033 1.093-.064.389-.033.789-.076 1.194-.13a10.02 10.02 0 001.12-.21V16.37zM54.438 20.067c-.675-.041-1.207-.153-1.587-.337-.493-.237-.74-.669-.74-1.297V10.56h5.596c.405 0 .646-.048.712-.143.068-.099.101-.254.101-.469V7.651a.601.601 0 00-.124-.4c-.085-.1-.315-.148-.69-.148h-5.594V2.776c0-.257-.096-.43-.28-.515-.186-.085-.432-.107-.737-.064l-4.68.969c-.375.064-.652.151-.84.258-.187.106-.299.29-.332.548l-.358 3.036-3.757.548c-.374.064-.602.136-.69.21-.084.077-.128.22-.128.435v1.746c0 .173.052.32.154.436.101.12.337.178.712.178h3.562v8.849c0 1.53.627 2.685 1.882 3.472.472.294 1.06.533 1.764.72 1.173.305 2.672.458 4.491.458h6.742c.367 0 .609-.355.456-.665l-1.39-2.817a.94.94 0 00-.848-.508h-3.397v-.003zM85.382 7.105h-6.055c-.51 0-.847.048-1.016.147-.17.095-.305.264-.406.5l-2.66 5.543-.394.816-1.51 3.325-1.375-3.228-.236-.527-2.662-5.995c-.102-.236-.246-.393-.433-.469-.186-.073-.534-.114-1.043-.114h-5.953c-.272 0-.483.043-.636.128-.15.089-.161.248-.023.484l6.923 13.946.498 1.006c.305.58.628.957.967 1.128.189.096.45.166.776.209l-.027.052-.51 1.039-.388.784c-.341.688-1.076 1.126-1.882 1.126h-3.782a.966.966 0 00-.88.53l-1.328 2.77c-.153.325.1.693.482.693h4.863c1.925-.015 3.541-.236 4.848-.664.192-.062.38-.13.56-.206.069-.025.14-.052.208-.083 1.455-.636 2.575-1.695 3.355-3.18v.032l.948-1.78 9.33-17.495c.204-.343.018-.517-.56-.517z"/></g><defs><clipPath id="clip0_611_26887"><path fill="#fff" d="M0 0h207v31H0z"/></clipPath></defs></svg>